<svg width="28" height="28" viewBox="0 0 28 28" fill="none" xmlns="http://www.w3.org/2000/svg">
<path d="M16.0183 24.5C15.8135 24.8539 15.5191 25.1477 15.1649 25.352C14.8106 25.5562 14.4089 25.6637 14 25.6637C13.5911 25.6637 13.1894 25.5562 12.8351 25.352C12.4809 25.1477 12.1865 24.8539 11.9817 24.5M21.1563 12.8334C21.8342 19.1042 24.5 21 24.5 21H3.5C3.5 21 7 18.5115 7 9.80004C7 7.82021 7.73733 5.92087 9.04983 4.52087C10.3635 3.12087 12.145 2.33337 14 2.33337C14.3932 2.33337 14.784 2.36837 15.1667 2.43837L21.1563 12.8334ZM22.1667 9.33337C23.0949 9.33337 23.9852 8.96462 24.6415 8.30825C25.2979 7.65187 25.6667 6.76163 25.6667 5.83337C25.6667 4.90512 25.2979 4.01488 24.6415 3.3585C23.9852 2.70212 23.0949 2.33337 22.1667 2.33337C21.2384 2.33337 20.3482 2.70212 19.6918 3.3585C19.0354 4.01488 18.6667 4.90512 18.6667 5.83337C18.6667 6.76163 19.0354 7.65187 19.6918 8.30825C20.3482 8.96462 21.2384 9.33337 22.1667 9.33337Z" stroke="#282828" stroke-width="1.5" stroke-linecap="round" stroke-linejoin="round"/>
<ellipse cx="6.3" cy="6.3" rx="6.3" ry="6.3" transform="matrix(-1 0 0 1 26.6001 0)" fill="#2D88D4"/>
</svg>
