<svg width="16" height="17" viewBox="0 0 16 17" fill="none" xmlns="http://www.w3.org/2000/svg">
<path d="M14.0002 8.3333H2.00016C1.36016 8.3333 0.833496 7.80663 0.833496 7.16663V4.9533C0.833496 4.49996 1.14681 4.03997 1.56681 3.8733L7.56681 1.47332C7.82015 1.37332 8.18018 1.37332 8.43351 1.47332L14.4335 3.8733C14.8535 4.03997 15.1668 4.50663 15.1668 4.9533V7.16663C15.1668 7.80663 14.6402 8.3333 14.0002 8.3333ZM8.00016 2.39332C7.9735 2.39332 7.94685 2.39328 7.93351 2.39995L1.94014 4.79998C1.90014 4.81998 1.8335 4.90663 1.8335 4.9533V7.16663C1.8335 7.25997 1.90683 7.3333 2.00016 7.3333H14.0002C14.0935 7.3333 14.1668 7.25997 14.1668 7.16663V4.9533C14.1668 4.90663 14.1068 4.81998 14.0602 4.79998L8.06018 2.39995C8.04685 2.39328 8.02683 2.39332 8.00016 2.39332Z" fill="white"/>
<path d="M14.6668 15.6667H1.3335C1.06016 15.6667 0.833496 15.44 0.833496 15.1667V13.1667C0.833496 12.5267 1.36016 12 2.00016 12H14.0002C14.6402 12 15.1668 12.5267 15.1668 13.1667V15.1667C15.1668 15.44 14.9402 15.6667 14.6668 15.6667ZM1.8335 14.6667H14.1668V13.1667C14.1668 13.0733 14.0935 13 14.0002 13H2.00016C1.90683 13 1.8335 13.0733 1.8335 13.1667V14.6667Z" fill="white"/>
<path d="M2.6665 13C2.39317 13 2.1665 12.7734 2.1665 12.5V7.83337C2.1665 7.56004 2.39317 7.33337 2.6665 7.33337C2.93984 7.33337 3.1665 7.56004 3.1665 7.83337V12.5C3.1665 12.7734 2.93984 13 2.6665 13Z" fill="white"/>
<path d="M5.3335 13C5.06016 13 4.8335 12.7734 4.8335 12.5V7.83337C4.8335 7.56004 5.06016 7.33337 5.3335 7.33337C5.60683 7.33337 5.8335 7.56004 5.8335 7.83337V12.5C5.8335 12.7734 5.60683 13 5.3335 13Z" fill="white"/>
<path d="M8 13C7.72667 13 7.5 12.7734 7.5 12.5V7.83337C7.5 7.56004 7.72667 7.33337 8 7.33337C8.27333 7.33337 8.5 7.56004 8.5 7.83337V12.5C8.5 12.7734 8.27333 13 8 13Z" fill="white"/>
<path d="M10.6665 13C10.3932 13 10.1665 12.7734 10.1665 12.5V7.83337C10.1665 7.56004 10.3932 7.33337 10.6665 7.33337C10.9398 7.33337 11.1665 7.56004 11.1665 7.83337V12.5C11.1665 12.7734 10.9398 13 10.6665 13Z" fill="white"/>
<path d="M13.3335 13C13.0602 13 12.8335 12.7734 12.8335 12.5V7.83337C12.8335 7.56004 13.0602 7.33337 13.3335 7.33337C13.6068 7.33337 13.8335 7.56004 13.8335 7.83337V12.5C13.8335 12.7734 13.6068 13 13.3335 13Z" fill="white"/>
<path d="M15.3332 15.6666H0.666504C0.393171 15.6666 0.166504 15.44 0.166504 15.1666C0.166504 14.8933 0.393171 14.6666 0.666504 14.6666H15.3332C15.6065 14.6666 15.8332 14.8933 15.8332 15.1666C15.8332 15.44 15.6065 15.6666 15.3332 15.6666Z" fill="white"/>
<path d="M8 6.66663C7.17333 6.66663 6.5 5.99329 6.5 5.16663C6.5 4.33996 7.17333 3.66663 8 3.66663C8.82667 3.66663 9.5 4.33996 9.5 5.16663C9.5 5.99329 8.82667 6.66663 8 6.66663ZM8 4.66663C7.72667 4.66663 7.5 4.89329 7.5 5.16663C7.5 5.43996 7.72667 5.66663 8 5.66663C8.27333 5.66663 8.5 5.43996 8.5 5.16663C8.5 4.89329 8.27333 4.66663 8 4.66663Z" fill="white"/>
</svg>
