<svg width="16" height="16" viewBox="0 0 16 16" fill="none" xmlns="http://www.w3.org/2000/svg">
<path d="M8.00016 1.33331C4.32416 1.33331 1.3335 4.32398 1.3335 7.99998V10.762C1.3335 11.4446 1.9315 12 2.66683 12H3.3335C3.51031 12 3.67988 11.9297 3.8049 11.8047C3.92992 11.6797 4.00016 11.5101 4.00016 11.3333V7.90465C4.00016 7.72784 3.92992 7.55827 3.8049 7.43324C3.67988 7.30822 3.51031 7.23798 3.3335 7.23798H2.72816C3.09883 4.65798 5.31883 2.66665 8.00016 2.66665C10.6815 2.66665 12.9015 4.65798 13.2722 7.23798H12.6668C12.49 7.23798 12.3204 7.30822 12.1954 7.43324C12.0704 7.55827 12.0002 7.72784 12.0002 7.90465V12C12.0002 12.7353 11.4022 13.3333 10.6668 13.3333H9.3335V12.6666H6.66683V14.6666H10.6668C12.1375 14.6666 13.3335 13.4706 13.3335 12C14.0688 12 14.6668 11.4446 14.6668 10.762V7.99998C14.6668 4.32398 11.6762 1.33331 8.00016 1.33331Z" fill="#FCFAFA"/>
</svg>
