<svg width="36" height="36" viewBox="0 0 36 36" fill="none" xmlns="http://www.w3.org/2000/svg">
<rect width="36" height="36" rx="8" fill="#EFF3FA"/>
<path d="M16.05 8.52997L10.03 12.46C8.10002 13.72 8.10002 16.54 10.03 17.8L16.05 21.73C17.13 22.44 18.91 22.44 19.99 21.73L25.98 17.8C27.9 16.54 27.9 13.73 25.98 12.47L19.99 8.53997C18.91 7.81997 17.13 7.81997 16.05 8.52997Z" stroke="#13296A" stroke-width="1.5" stroke-linecap="round" stroke-linejoin="round"/>
<path d="M11.6301 19.08L11.6201 23.77C11.6201 25.04 12.6001 26.4 13.8001 26.8L16.9901 27.86C17.5401 28.04 18.4501 28.04 19.0101 27.86L22.2001 26.8C23.4001 26.4 24.3801 25.04 24.3801 23.77V19.13" stroke="#13296A" stroke-width="1.5" stroke-linecap="round" stroke-linejoin="round"/>
<path d="M27.3999 21V15" stroke="#13296A" stroke-width="1.5" stroke-linecap="round" stroke-linejoin="round"/>
</svg>
