<svg width="16" height="17" viewBox="0 0 16 17" fill="none" xmlns="http://www.w3.org/2000/svg">
<path d="M1.3335 9.05332V10.5C1.3335 13.8333 2.66683 15.1666 6.00016 15.1666H10.0002C13.3335 15.1666 14.6668 13.8333 14.6668 10.5V6.49998C14.6668 3.16665 13.3335 1.83331 10.0002 1.83331H6.00016C2.66683 1.83331 1.3335 3.16665 1.3335 6.49998" stroke="white" stroke-linecap="round" stroke-linejoin="round"/>
<path d="M6.74003 7.93335H4.97337C4.55337 7.93335 4.21338 8.27332 4.21338 8.69332V12.1066H6.74003V7.93335V7.93335Z" stroke="white" stroke-miterlimit="10" stroke-linecap="round" stroke-linejoin="round"/>
<path d="M8.50673 4.89996H7.49339C7.07339 4.89996 6.7334 5.23997 6.7334 5.65997V12.1H9.26007V5.65997C9.26007 5.23997 8.92673 4.89996 8.50673 4.89996Z" stroke="white" stroke-miterlimit="10" stroke-linecap="round" stroke-linejoin="round"/>
<path d="M11.0333 9.06665H9.2666V12.1H11.7933V9.82666C11.7866 9.40666 11.4466 9.06665 11.0333 9.06665Z" stroke="white" stroke-miterlimit="10" stroke-linecap="round" stroke-linejoin="round"/>
</svg>
