<svg width="16" height="17" viewBox="0 0 16 17" fill="none" xmlns="http://www.w3.org/2000/svg">
<path d="M11.7429 10.843C12.7112 9.52169 13.1449 7.88349 12.9572 6.25615C12.7695 4.62881 11.9743 3.13234 10.7307 2.06613C9.48701 0.999923 7.88665 0.442605 6.24973 0.505679C4.61282 0.568752 3.06008 1.24756 1.90217 2.40631C0.744249 3.56505 0.0665484 5.11828 0.00464653 6.75524C-0.0572553 8.39219 0.501207 9.99216 1.56831 11.235C2.6354 12.4779 4.13244 13.2721 5.75992 13.4586C7.38739 13.6451 9.02528 13.2102 10.3459 12.241H10.3449C10.3749 12.281 10.4069 12.319 10.4429 12.356L14.2929 16.206C14.4804 16.3936 14.7348 16.4991 15 16.4992C15.2653 16.4993 15.5198 16.394 15.7074 16.2065C15.895 16.019 16.0005 15.7646 16.0006 15.4994C16.0007 15.2341 15.8954 14.9796 15.7079 14.792L11.8579 10.942C11.8221 10.9058 11.7837 10.8724 11.7429 10.842V10.843ZM12.0009 6.999C12.0009 7.72127 11.8586 8.43647 11.5822 9.10376C11.3058 9.77105 10.9007 10.3774 10.39 10.8881C9.87926 11.3988 9.27295 11.8039 8.60566 12.0803C7.93837 12.3567 7.22317 12.499 6.5009 12.499C5.77863 12.499 5.06343 12.3567 4.39614 12.0803C3.72885 11.8039 3.12253 11.3988 2.61181 10.8881C2.10109 10.3774 1.69596 9.77105 1.41956 9.10376C1.14316 8.43647 1.0009 7.72127 1.0009 6.999C1.0009 5.54031 1.58036 4.14136 2.61181 3.10991C3.64326 2.07846 5.04221 1.499 6.5009 1.499C7.95959 1.499 9.35853 2.07846 10.39 3.10991C11.4214 4.14136 12.0009 5.54031 12.0009 6.999Z" fill="#8A8A8A"/>
</svg>
