<svg width="16" height="17" viewBox="0 0 16 17" fill="none" xmlns="http://www.w3.org/2000/svg">
<path d="M8 11C6.62 11 5.5 9.88 5.5 8.5C5.5 7.12 6.62 6 8 6C9.38 6 10.5 7.12 10.5 8.5C10.5 9.88 9.38 11 8 11ZM8 7C7.17333 7 6.5 7.67333 6.5 8.5C6.5 9.32667 7.17333 10 8 10C8.82667 10 9.5 9.32667 9.5 8.5C9.5 7.67333 8.82667 7 8 7Z" fill="white"/>
<path d="M10.1402 15.2933C10.0002 15.2933 9.86016 15.2733 9.72016 15.24C9.30683 15.1267 8.96016 14.8667 8.74016 14.5L8.66016 14.3667C8.26683 13.6867 7.72683 13.6867 7.3335 14.3667L7.26016 14.4933C7.04016 14.8667 6.6935 15.1333 6.28016 15.24C5.86016 15.3533 5.42683 15.2933 5.06016 15.0733L3.9135 14.4133C3.50683 14.18 3.2135 13.8 3.08683 13.34C2.96683 12.88 3.02683 12.4067 3.26016 12C3.4535 11.66 3.50683 11.3533 3.3935 11.16C3.28016 10.9667 2.9935 10.8533 2.60016 10.8533C1.62683 10.8533 0.833496 10.06 0.833496 9.08665V7.91332C0.833496 6.93999 1.62683 6.14665 2.60016 6.14665C2.9935 6.14665 3.28016 6.03332 3.3935 5.83999C3.50683 5.64665 3.46016 5.33999 3.26016 4.99999C3.02683 4.59332 2.96683 4.11332 3.08683 3.65999C3.20683 3.19999 3.50016 2.81999 3.9135 2.58665L5.06683 1.92665C5.82016 1.47999 6.8135 1.73999 7.26683 2.50665L7.34683 2.63999C7.74016 3.31999 8.28016 3.31999 8.6735 2.63999L8.74683 2.51332C9.20016 1.73999 10.1935 1.47999 10.9535 1.93332L12.1002 2.59332C12.5068 2.82665 12.8002 3.20665 12.9268 3.66665C13.0468 4.12665 12.9868 4.59999 12.7535 5.00665C12.5602 5.34665 12.5068 5.65332 12.6202 5.84665C12.7335 6.03999 13.0202 6.15332 13.4135 6.15332C14.3868 6.15332 15.1802 6.94665 15.1802 7.91999V9.09332C15.1802 10.0667 14.3868 10.86 13.4135 10.86C13.0202 10.86 12.7335 10.9733 12.6202 11.1667C12.5068 11.36 12.5535 11.6667 12.7535 12.0067C12.9868 12.4133 13.0535 12.8933 12.9268 13.3467C12.8068 13.8067 12.5135 14.1867 12.1002 14.42L10.9468 15.08C10.6935 15.22 10.4202 15.2933 10.1402 15.2933ZM8.00016 12.8267C8.5935 12.8267 9.14683 13.2 9.52683 13.86L9.60016 13.9867C9.68016 14.1267 9.8135 14.2267 9.9735 14.2667C10.1335 14.3067 10.2935 14.2867 10.4268 14.2067L11.5802 13.54C11.7535 13.44 11.8868 13.2733 11.9402 13.0733C11.9935 12.8733 11.9668 12.6667 11.8668 12.4933C11.4868 11.84 11.4402 11.1667 11.7335 10.6533C12.0268 10.14 12.6335 9.84665 13.3935 9.84665C13.8202 9.84665 14.1602 9.50665 14.1602 9.07999V7.90665C14.1602 7.48665 13.8202 7.13999 13.3935 7.13999C12.6335 7.13999 12.0268 6.84665 11.7335 6.33332C11.4402 5.81999 11.4868 5.14665 11.8668 4.49332C11.9668 4.31999 11.9935 4.11332 11.9402 3.91332C11.8868 3.71332 11.7602 3.55332 11.5868 3.44665L10.4335 2.78665C10.1468 2.61332 9.76683 2.71332 9.5935 3.00665L9.52016 3.13332C9.14016 3.79332 8.58683 4.16665 7.9935 4.16665C7.40016 4.16665 6.84683 3.79332 6.46683 3.13332L6.3935 2.99999C6.22683 2.71999 5.8535 2.61999 5.56683 2.78665L4.4135 3.45332C4.24016 3.55332 4.10683 3.71999 4.0535 3.91999C4.00016 4.11999 4.02683 4.32665 4.12683 4.49999C4.50683 5.15332 4.5535 5.82665 4.26016 6.33999C3.96683 6.85332 3.36016 7.14665 2.60016 7.14665C2.1735 7.14665 1.8335 7.48665 1.8335 7.91332V9.08665C1.8335 9.50665 2.1735 9.85332 2.60016 9.85332C3.36016 9.85332 3.96683 10.1467 4.26016 10.66C4.5535 11.1733 4.50683 11.8467 4.12683 12.5C4.02683 12.6733 4.00016 12.88 4.0535 13.08C4.10683 13.28 4.2335 13.44 4.40683 13.5467L5.56016 14.2067C5.70016 14.2933 5.86683 14.3133 6.02016 14.2733C6.18016 14.2333 6.3135 14.1267 6.40016 13.9867L6.4735 13.86C6.8535 13.2067 7.40683 12.8267 8.00016 12.8267Z" fill="white"/>
</svg>
