<svg width="61" height="61" viewBox="0 0 61 61" fill="none" xmlns="http://www.w3.org/2000/svg">
<rect x="0.133301" width="60.8" height="60.8" rx="8" fill="#EFF3FA"/>
<path d="M43.4625 37.9125C43.4625 38.3625 43.3625 38.825 43.15 39.275C42.9375 39.725 42.6625 40.15 42.3 40.55C41.6875 41.225 41.0125 41.7125 40.25 42.025C39.5 42.3375 38.6875 42.5 37.8125 42.5C36.5375 42.5 35.175 42.2 33.7375 41.5875C32.3 40.975 30.8625 40.15 29.4375 39.1125C28 38.0625 26.6375 36.9 25.3375 35.6125C24.05 34.3125 22.8875 32.95 21.85 31.525C20.825 30.1 20 28.675 19.4 27.2625C18.8 25.8375 18.5 24.475 18.5 23.175C18.5 22.325 18.65 21.5125 18.95 20.7625C19.25 20 19.725 19.3 20.3875 18.675C21.1875 17.8875 22.0625 17.5 22.9875 17.5C23.3375 17.5 23.6875 17.575 24 17.725C24.325 17.875 24.6125 18.1 24.8375 18.425L27.7375 22.5125C27.9625 22.825 28.125 23.1125 28.2375 23.3875C28.35 23.65 28.4125 23.9125 28.4125 24.15C28.4125 24.45 28.325 24.75 28.15 25.0375C27.9875 25.325 27.75 25.625 27.45 25.925L26.5 26.9125C26.3625 27.05 26.3 27.2125 26.3 27.4125C26.3 27.5125 26.3125 27.6 26.3375 27.7C26.375 27.8 26.4125 27.875 26.4375 27.95C26.6625 28.3625 27.05 28.9 27.6 29.55C28.1625 30.2 28.7625 30.8625 29.4125 31.525C30.0875 32.1875 30.7375 32.8 31.4 33.3625C32.05 33.9125 32.5875 34.2875 33.0125 34.5125C33.075 34.5375 33.15 34.575 33.2375 34.6125C33.3375 34.65 33.4375 34.6625 33.55 34.6625C33.7625 34.6625 33.925 34.5875 34.0625 34.45L35.0125 33.5125C35.325 33.2 35.625 32.9625 35.9125 32.8125C36.2 32.6375 36.4875 32.55 36.8 32.55C37.0375 32.55 37.2875 32.6 37.5625 32.7125C37.8375 32.825 38.125 32.9875 38.4375 33.2L42.575 36.1375C42.9 36.3625 43.125 36.625 43.2625 36.9375C43.3875 37.25 43.4625 37.5625 43.4625 37.9125Z" stroke="#A7A7A7" stroke-width="1.5" stroke-miterlimit="10"/>
<path d="M39.125 26.25C39.125 25.5 38.5375 24.35 37.6625 23.4125C36.8625 22.55 35.8 21.875 34.75 21.875" stroke="#A7A7A7" stroke-width="1.5" stroke-linecap="round" stroke-linejoin="round"/>
<path d="M43.5 26.25C43.5 21.4125 39.5875 17.5 34.75 17.5" stroke="#A7A7A7" stroke-width="1.5" stroke-linecap="round" stroke-linejoin="round"/>
</svg>
