<svg width="61" height="61" viewBox="0 0 61 61" fill="none" xmlns="http://www.w3.org/2000/svg">
<rect width="60.8" height="60.8" rx="8" fill="#EFF3FA"/>
<path d="M25.5624 14.1625L18.0374 19.075C15.6249 20.65 15.6249 24.175 18.0374 25.75L25.5624 30.6625C26.9124 31.55 29.1374 31.55 30.4874 30.6625L37.9749 25.75C40.3749 24.175 40.3749 20.6625 37.9749 19.0875L30.4874 14.175C29.1374 13.275 26.9124 13.275 25.5624 14.1625Z" stroke="#8A8A8A" stroke-width="1.5" stroke-linecap="round" stroke-linejoin="round"/>
<path d="M20.0374 27.35L20.0249 33.2125C20.0249 34.8 21.2499 36.5 22.7499 37L26.7374 38.325C27.4249 38.55 28.5624 38.55 29.2624 38.325L33.2499 37C34.7499 36.5 35.9749 34.8 35.9749 33.2125V27.4125" stroke="#8A8A8A" stroke-width="1.5" stroke-linecap="round" stroke-linejoin="round"/>
<path d="M39.75 29.75V22.25" stroke="#8A8A8A" stroke-width="1.5" stroke-linecap="round" stroke-linejoin="round"/>
</svg>
