<svg width="16" height="17" viewBox="0 0 16 17" fill="none" xmlns="http://www.w3.org/2000/svg">
<path d="M8.00671 11.8334C7.44005 11.8334 6.86671 11.6867 6.42005 11.4L2.40671 8.78002C1.66005 8.29336 1.21338 7.47336 1.21338 6.58002C1.21338 5.68669 1.66005 4.86669 2.40671 4.38002L6.42671 1.76669C7.32005 1.18669 8.71338 1.18669 9.60005 1.77336L13.5934 4.39336C14.3334 4.88002 14.78 5.70002 14.78 6.58669C14.78 7.47336 14.3334 8.29336 13.5934 8.78002L9.60005 11.4C9.15338 11.6934 8.58005 11.8334 8.00671 11.8334ZM8.00671 2.33336C7.62671 2.33336 7.24671 2.42002 6.97338 2.60669L2.96005 5.22002C2.49338 5.52669 2.22005 6.02002 2.22005 6.58002C2.22005 7.14002 2.48671 7.63336 2.96005 7.94002L6.97338 10.56C7.52671 10.92 8.50005 10.92 9.05338 10.56L13.0467 7.94002C13.5134 7.63336 13.78 7.14002 13.78 6.58002C13.78 6.02002 13.5134 5.52669 13.0467 5.22002L9.05338 2.60002C8.77338 2.42669 8.39338 2.33336 8.00671 2.33336Z" fill="white"/>
<path d="M7.99996 15.6666C7.70662 15.6666 7.40662 15.6266 7.16662 15.5466L5.03996 14.84C4.03329 14.5066 3.23996 13.4066 3.24662 12.3466L3.25329 9.21997C3.25329 8.94664 3.47996 8.71997 3.75329 8.71997C4.02662 8.71997 4.25329 8.94664 4.25329 9.21997L4.24662 12.3466C4.24662 12.9733 4.76662 13.6933 5.35996 13.8933L7.48662 14.6C7.75329 14.6866 8.24662 14.6866 8.51329 14.6L10.64 13.8933C11.2333 13.6933 11.7533 12.9733 11.7533 12.3533V9.25997C11.7533 8.98664 11.98 8.75997 12.2533 8.75997C12.5266 8.75997 12.7533 8.98664 12.7533 9.25997V12.3533C12.7533 13.4133 11.9666 14.5066 10.96 14.8466L8.83329 15.5533C8.59329 15.6266 8.29329 15.6666 7.99996 15.6666Z" fill="white"/>
<path d="M14.2666 11C13.9933 11 13.7666 10.7733 13.7666 10.5V6.5C13.7666 6.22667 13.9933 6 14.2666 6C14.5399 6 14.7666 6.22667 14.7666 6.5V10.5C14.7666 10.7733 14.5399 11 14.2666 11Z" fill="white"/>
</svg>
